<svg xmlns="http://www.w3.org/2000/svg" viewBox="0 0 640 180" width="640" height="180">
  <rect width="640" height="180" fill="#1ACA5A"/>

  <!-- overhead wire -->
  <line x1="0" y1="22" x2="640" y2="22" stroke="rgba(0,0,0,0.2)" stroke-width="1.5"/>
  <!-- pantograph -->
  <line x1="522" y1="22" x2="512" y2="40" stroke="rgba(0,0,0,0.3)" stroke-width="1.5"/>
  <line x1="512" y1="40" x2="504" y2="58" stroke="rgba(0,0,0,0.3)" stroke-width="1.5"/>
  <line x1="504" y1="58" x2="516" y2="70" stroke="rgba(0,0,0,0.25)" stroke-width="1"/>
  <rect x="510" y="20" width="24" height="4" rx="2" fill="rgba(0,0,0,0.3)"/>

  <!-- body -->
  <path d="M24,138 L24,88 Q24,74 36,74 L58,74 L58,138 Z" fill="white" opacity="0.92"/>
  <rect x="36" y="72" width="568" height="66" rx="4" fill="white" opacity="0.92"/>
  <path d="M616,138 L616,88 Q616,74 604,74 L582,74 L582,138 Z" fill="white" opacity="0.92"/>
  <rect x="36" y="72" width="568" height="9" rx="3" fill="white" opacity="0.6"/>

  <!-- windshields -->
  <path d="M26,136 L26,94 Q26,78 38,78 L56,78" fill="none" stroke="#1ACA5A" stroke-width="2" opacity="0.8"/>
  <path d="M614,136 L614,94 Q614,78 602,78 L584,78" fill="none" stroke="#1ACA5A" stroke-width="2" opacity="0.8"/>

  <!-- windows — filled green (see-through effect) -->
  <rect x="64"  y="82" width="32" height="28" rx="2" fill="#1ACA5A"/>
  <rect x="104" y="82" width="32" height="28" rx="2" fill="#1ACA5A"/>
  <rect x="144" y="82" width="32" height="28" rx="2" fill="#1ACA5A"/>

  <!-- door 1 -->
  <rect x="184" y="72" width="34" height="66" rx="2" fill="#17b34e"/>
  <line x1="201" y1="72" x2="201" y2="138" stroke="#0fa040" stroke-width="2"/>

  <!-- articulation 1 -->
  <rect x="224" y="76" width="20" height="58" rx="2" fill="rgba(255,255,255,0.3)"/>

  <!-- windows -->
  <rect x="252" y="82" width="32" height="28" rx="2" fill="#1ACA5A"/>
  <rect x="292" y="82" width="32" height="28" rx="2" fill="#1ACA5A"/>

  <!-- door 2 -->
  <rect x="332" y="72" width="34" height="66" rx="2" fill="#17b34e"/>
  <line x1="349" y1="72" x2="349" y2="138" stroke="#0fa040" stroke-width="2"/>

  <!-- articulation 2 -->
  <rect x="372" y="76" width="20" height="58" rx="2" fill="rgba(255,255,255,0.3)"/>

  <!-- windows -->
  <rect x="400" y="82" width="32" height="28" rx="2" fill="#1ACA5A"/>
  <rect x="440" y="82" width="32" height="28" rx="2" fill="#1ACA5A"/>

  <!-- door 3 -->
  <rect x="480" y="72" width="34" height="66" rx="2" fill="#17b34e"/>
  <line x1="497" y1="72" x2="497" y2="138" stroke="#0fa040" stroke-width="2"/>

  <!-- windows right -->
  <rect x="522" y="82" width="32" height="28" rx="2" fill="#1ACA5A"/>
  <rect x="562" y="82" width="22" height="28" rx="2" fill="#1ACA5A"/>

  <!-- undercarriage -->
  <rect x="28" y="136" width="584" height="10" rx="2" fill="white" opacity="0.5"/>

  <!-- bogie 1 -->
  <rect x="44"  y="144" width="70" height="8" rx="3" fill="white" opacity="0.7"/>
  <circle cx="58"  cy="158" r="12" fill="#0a5c25"/><circle cx="58"  cy="158" r="7" fill="#0e7a31"/>
  <circle cx="100" cy="158" r="12" fill="#0a5c25"/><circle cx="100" cy="158" r="7" fill="#0e7a31"/>

  <!-- bogie 2 -->
  <rect x="210" y="144" width="70" height="8" rx="3" fill="white" opacity="0.7"/>
  <circle cx="224" cy="158" r="12" fill="#0a5c25"/><circle cx="224" cy="158" r="7" fill="#0e7a31"/>
  <circle cx="266" cy="158" r="12" fill="#0a5c25"/><circle cx="266" cy="158" r="7" fill="#0e7a31"/>

  <!-- bogie 3 -->
  <rect x="358" y="144" width="70" height="8" rx="3" fill="white" opacity="0.7"/>
  <circle cx="372" cy="158" r="12" fill="#0a5c25"/><circle cx="372" cy="158" r="7" fill="#0e7a31"/>
  <circle cx="414" cy="158" r="12" fill="#0a5c25"/><circle cx="414" cy="158" r="7" fill="#0e7a31"/>

  <!-- bogie 4 -->
  <rect x="526" y="144" width="70" height="8" rx="3" fill="white" opacity="0.7"/>
  <circle cx="540" cy="158" r="12" fill="#0a5c25"/><circle cx="540" cy="158" r="7" fill="#0e7a31"/>
  <circle cx="582" cy="158" r="12" fill="#0a5c25"/><circle cx="582" cy="158" r="7" fill="#0e7a31"/>

  <!-- rails -->
  <rect x="0" y="168" width="640" height="3" rx="1" fill="rgba(0,0,0,0.15)"/>
  <rect x="0" y="173" width="640" height="3" rx="1" fill="rgba(0,0,0,0.15)"/>
</svg>
