<svg xmlns="http://www.w3.org/2000/svg" viewBox="0 0 800 300" width="800" height="300">
  <rect width="800" height="300" fill="#0bd26f"/>
  <defs>
    <pattern id="tramPatternDark" x="0" y="0" width="220" height="140" patternUnits="userSpaceOnUse">
      <line x1="0" y1="14" x2="220" y2="14" stroke="rgba(0,0,0,0.2)" stroke-width="0.8"/>
      <line x1="178" y1="14" x2="174" y2="22" stroke="rgba(0,0,0,0.3)" stroke-width="1"/>
      <line x1="174" y1="22" x2="170" y2="30" stroke="rgba(0,0,0,0.3)" stroke-width="1"/>
      <line x1="170" y1="30" x2="175" y2="36" stroke="rgba(0,0,0,0.2)" stroke-width="0.8"/>
      <rect x="172" y="13" width="9" height="2" rx="1" fill="rgba(0,0,0,0.25)"/>
      <path d="M5,76 L5,52 Q5,46 10,46 L18,46 L18,76 Z" fill="rgba(0,0,0,0.15)"/>
      <rect x="10" y="44" width="200" height="32" rx="2" fill="rgba(0,0,0,0.15)"/>
      <path d="M215,76 L215,52 Q215,46 210,46 L202,46 L202,76 Z" fill="rgba(0,0,0,0.15)"/>
      <rect x="10" y="44" width="200" height="5" rx="2" fill="rgba(0,0,0,0.1)"/>
      <rect x="22" y="48" width="11" height="10" rx="1" fill="rgba(255,255,255,0.45)"/>
      <rect x="37" y="48" width="11" height="10" rx="1" fill="rgba(255,255,255,0.45)"/>
      <rect x="52" y="44" width="10" height="32" rx="1" fill="rgba(0,0,0,0.2)"/>
      <line x1="57" y1="44" x2="57" y2="76" stroke="rgba(0,0,0,0.15)" stroke-width="0.8"/>
      <rect x="65" y="46" width="6" height="28" rx="1" fill="rgba(0,0,0,0.12)"/>
      <rect x="75" y="48" width="11" height="10" rx="1" fill="rgba(255,255,255,0.45)"/>
      <rect x="90" y="48" width="11" height="10" rx="1" fill="rgba(255,255,255,0.45)"/>
      <rect x="104" y="44" width="10" height="32" rx="1" fill="rgba(0,0,0,0.2)"/>
      <line x1="109" y1="44" x2="109" y2="76" stroke="rgba(0,0,0,0.15)" stroke-width="0.8"/>
      <rect x="117" y="46" width="6" height="28" rx="1" fill="rgba(0,0,0,0.12)"/>
      <rect x="127" y="48" width="11" height="10" rx="1" fill="rgba(255,255,255,0.45)"/>
      <rect x="142" y="48" width="11" height="10" rx="1" fill="rgba(255,255,255,0.45)"/>
      <rect x="156" y="44" width="10" height="32" rx="1" fill="rgba(0,0,0,0.2)"/>
      <line x1="161" y1="44" x2="161" y2="76" stroke="rgba(0,0,0,0.15)" stroke-width="0.8"/>
      <rect x="172" y="48" width="11" height="10" rx="1" fill="rgba(255,255,255,0.45)"/>
      <rect x="187" y="48" width="14" height="10" rx="1" fill="rgba(255,255,255,0.45)"/>
      <rect x="7" y="74" width="206" height="5" rx="1" fill="rgba(0,0,0,0.12)"/>
      <rect x="12" y="78" width="22" height="4" rx="1" fill="rgba(0,0,0,0.12)"/>
      <circle cx="17" cy="86" r="5.5" fill="rgba(0,0,0,0.25)"/><circle cx="17" cy="86" r="3" fill="rgba(0,0,0,0.15)"/>
      <circle cx="28" cy="86" r="5.5" fill="rgba(0,0,0,0.25)"/><circle cx="28" cy="86" r="3" fill="rgba(0,0,0,0.15)"/>
      <rect x="62" y="78" width="22" height="4" rx="1" fill="rgba(0,0,0,0.12)"/>
      <circle cx="67" cy="86" r="5.5" fill="rgba(0,0,0,0.25)"/><circle cx="67" cy="86" r="3" fill="rgba(0,0,0,0.15)"/>
      <circle cx="78" cy="86" r="5.5" fill="rgba(0,0,0,0.25)"/><circle cx="78" cy="86" r="3" fill="rgba(0,0,0,0.15)"/>
      <rect x="105" y="78" width="22" height="4" rx="1" fill="rgba(0,0,0,0.12)"/>
      <circle cx="110" cy="86" r="5.5" fill="rgba(0,0,0,0.25)"/><circle cx="110" cy="86" r="3" fill="rgba(0,0,0,0.15)"/>
      <circle cx="121" cy="86" r="5.5" fill="rgba(0,0,0,0.25)"/><circle cx="121" cy="86" r="3" fill="rgba(0,0,0,0.15)"/>
      <rect x="158" y="78" width="22" height="4" rx="1" fill="rgba(0,0,0,0.12)"/>
      <circle cx="163" cy="86" r="5.5" fill="rgba(0,0,0,0.25)"/><circle cx="163" cy="86" r="3" fill="rgba(0,0,0,0.15)"/>
      <circle cx="174" cy="86" r="5.5" fill="rgba(0,0,0,0.25)"/><circle cx="174" cy="86" r="3" fill="rgba(0,0,0,0.15)"/>
      <rect x="0" y="93" width="220" height="2" rx="1" fill="rgba(0,0,0,0.15)"/>
      <rect x="0" y="97" width="220" height="2" rx="1" fill="rgba(0,0,0,0.15)"/>
      <rect x="20"  y="92" width="3" height="8" rx="1" fill="rgba(0,0,0,0.08)"/>
      <rect x="50"  y="92" width="3" height="8" rx="1" fill="rgba(0,0,0,0.08)"/>
      <rect x="80"  y="92" width="3" height="8" rx="1" fill="rgba(0,0,0,0.08)"/>
      <rect x="110" y="92" width="3" height="8" rx="1" fill="rgba(0,0,0,0.08)"/>
      <rect x="140" y="92" width="3" height="8" rx="1" fill="rgba(0,0,0,0.08)"/>
      <rect x="170" y="92" width="3" height="8" rx="1" fill="rgba(0,0,0,0.08)"/>
      <rect x="4"   y="4"   width="18" height="6" rx="2" fill="#F77DC4" opacity="0.7" transform="rotate(-20 4 4)"/>
      <rect x="150" y="2"   width="14" height="5" rx="2" fill="rgba(255,255,255,0.5)" transform="rotate(15 150 2)"/>
      <rect x="185" y="108" width="16" height="6" rx="2" fill="#F77DC4" opacity="0.7" transform="rotate(25 185 108)"/>
      <rect x="2"   y="110" width="14" height="5" rx="2" fill="rgba(255,255,255,0.5)" transform="rotate(-10 2 110)"/>
      <rect x="100" y="5"   width="12" height="4" rx="2" fill="#F77DC4" opacity="0.6" transform="rotate(8 100 5)"/>
    </pattern>
  </defs>
  <rect width="800" height="300" fill="url(#tramPatternDark)"/>
</svg>
